<?xml version="1.0" encoding="UTF-8"?>
<!DOCTYPE svg PUBLIC "-//W3C//DTD SVG 1.1//EN" "http://www.w3.org/Graphics/SVG/1.1/DTD/svg11.dtd">
<!-- Creator: CorelDRAW X5 -->
<svg xmlns="http://www.w3.org/2000/svg" xml:space="preserve" width="14.508mm" height="14.508mm" style="shape-rendering:geometricPrecision; text-rendering:geometricPrecision; image-rendering:optimizeQuality; fill-rule:evenodd; clip-rule:evenodd"
viewBox="0 0 4242 4242"
 xmlns:xlink="http://www.w3.org/1999/xlink">
 <defs>
  <style type="text/css">
   <![CDATA[
    .fil0 {fill:#EBEBEB;fill-rule:nonzero}
   ]]>
  </style>
 </defs>
 <g id="Camada_x0020_1">
  <metadata id="CorelCorpID_0Corel-Layer"/>
  <path class="fil0" d="M4242 2121c0,586 -237,1116 -621,1500 -384,384 -914,621 -1500,621 -586,0 -1116,-237 -1500,-621 -384,-384 -621,-914 -621,-1500 0,-586 237,-1116 621,-1500 384,-384 914,-621 1500,-621 586,0 1116,237 1500,621 384,384 621,914 621,1500zm-776 1345c344,-344 557,-820 557,-1345 0,-525 -213,-1001 -557,-1345 -344,-344 -819,-557 -1345,-557 -525,0 -1001,213 -1345,557 -344,344 -557,820 -557,1345 0,525 213,1001 557,1345 344,344 820,557 1345,557 525,0 1001,-213 1345,-557z"/>
  <path class="fil0" d="M3258 2121c0,314 -127,598 -333,804 -206,206 -490,333 -804,333 -314,0 -598,-127 -804,-333 -206,-206 -333,-490 -333,-804 0,-314 127,-598 333,-804 206,-206 490,-333 804,-333 314,0 598,127 804,333 206,206 333,490 333,804zm-488 649c166,-166 269,-396 269,-649 0,-254 -103,-483 -269,-649 -166,-166 -396,-269 -649,-269 -254,0 -483,103 -649,269 -166,166 -269,396 -269,649 0,254 103,483 269,649 166,166 396,269 649,269 254,0 483,-103 649,-269z"/>
  <path class="fil0" d="M1867 1084c218,281 396,595 527,932 127,328 208,679 235,1044l-218 16c-26,-344 -102,-673 -221,-981 -122,-318 -290,-613 -496,-878l173 -134z"/>
  <path class="fil0" d="M1450 2931c101,-226 266,-418 472,-551 200,-130 438,-205 693,-205 94,0 187,11 278,31 92,21 181,51 264,90l-93 198c-69,-33 -143,-58 -219,-75 -73,-16 -150,-25 -231,-25 -212,0 -409,62 -574,169 -171,111 -308,269 -392,457l-200 -89z"/>
  <path class="fil0" d="M2903 1400c-104,219 -269,404 -472,532 -197,125 -431,197 -681,197 -122,0 -240,-17 -352,-49 -116,-33 -225,-82 -324,-144l116 -186c82,52 173,92 268,120 92,26 190,41 292,41 208,0 401,-60 564,-163 168,-106 305,-259 391,-441l198 93z"/>
 </g>
</svg>
