<?xml version="1.0" encoding="UTF-8"?>
<!DOCTYPE svg PUBLIC "-//W3C//DTD SVG 1.1//EN" "http://www.w3.org/Graphics/SVG/1.1/DTD/svg11.dtd">
<!-- Creator: CorelDRAW X5 -->
<svg xmlns="http://www.w3.org/2000/svg" xml:space="preserve" width="14.5081mm" height="14.508mm" style="shape-rendering:geometricPrecision; text-rendering:geometricPrecision; image-rendering:optimizeQuality; fill-rule:evenodd; clip-rule:evenodd"
viewBox="0 0 193 193"
 xmlns:xlink="http://www.w3.org/1999/xlink">
 <defs>
  <style type="text/css">
   <![CDATA[
    .fil0 {fill:#EBEBEB;fill-rule:nonzero}
   ]]>
  </style>
 </defs>
 <g id="Camada_x0020_1">
  <metadata id="CorelCorpID_0Corel-Layer"/>
  <path class="fil0" d="M193 96c0,27 -11,51 -28,68 -17,17 -42,28 -68,28 -27,0 -51,-11 -68,-28 -17,-17 -28,-42 -28,-68 0,-27 11,-51 28,-68 17,-17 42,-28 68,-28 27,0 51,11 68,28 17,17 28,42 28,68zm-35 61c16,-16 25,-37 25,-61 0,-24 -10,-45 -25,-61 -16,-16 -37,-25 -61,-25 -24,0 -46,10 -61,25 -16,16 -25,37 -25,61 0,24 10,46 25,61 16,16 37,25 61,25 24,0 46,-10 61,-25z"/>
  <path class="fil0" d="M116 83l-11 0c-3,0 -5,-2 -5,-5l0 -11c0,-3 1,-5 3,-7 0,0 0,0 0,0 2,-2 5,-3 7,-3l7 0 0 -8 -11 0 0 0c-6,0 -10,2 -13,4l0 0c-4,4 -5,9 -5,13l0 12c0,3 -2,5 -5,5l-6 0 0 9 6 0c3,0 5,2 5,5l0 48 12 0 0 -48c0,-3 2,-5 5,-5l11 0 1 -9zm-6 -10l12 0 0 0c0,0 0,0 1,0 3,0 5,3 4,5l-2 19c0,3 -2,5 -5,5l-10 0 0 48c0,3 -2,5 -5,5l-22 0c-3,0 -5,-2 -5,-5l0 -48 -6 0c-3,0 -5,-2 -5,-5l0 -19c0,-3 2,-5 5,-5l6 0 0 -7c0,-6 2,-14 8,-20l0 0 0 0c4,-4 11,-7 20,-7l0 0 0 0 16 0c0,0 0,0 0,0 3,0 5,2 5,5l0 18c0,3 -2,5 -5,5l-12 0c0,0 0,0 0,0l0 6z"/>
 </g>
</svg>
