<?xml version="1.0" encoding="UTF-8"?>
<!DOCTYPE svg PUBLIC "-//W3C//DTD SVG 1.1//EN" "http://www.w3.org/Graphics/SVG/1.1/DTD/svg11.dtd">
<!-- Creator: CorelDRAW X5 -->
<svg xmlns="http://www.w3.org/2000/svg" xml:space="preserve" width="14.508mm" height="14.508mm" style="shape-rendering:geometricPrecision; text-rendering:geometricPrecision; image-rendering:optimizeQuality; fill-rule:evenodd; clip-rule:evenodd"
viewBox="0 0 489 489"
 xmlns:xlink="http://www.w3.org/1999/xlink">
 <defs>
  <style type="text/css">
   <![CDATA[
    .fil0 {fill:#EBEBEB;fill-rule:nonzero}
   ]]>
  </style>
 </defs>
 <g id="Camada_x0020_1">
  <metadata id="CorelCorpID_0Corel-Layer"/>
  <path class="fil0" d="M489 244c0,67 -27,129 -72,173 -44,44 -105,72 -173,72 -67,0 -129,-27 -173,-72 -44,-44 -72,-105 -72,-173 0,-67 27,-129 72,-173 44,-44 105,-72 173,-72 67,0 129,27 173,72 44,44 72,105 72,173zm-89 155c40,-40 64,-94 64,-155 0,-61 -25,-115 -64,-155 -40,-40 -94,-64 -155,-64 -61,0 -115,25 -155,64 -40,40 -64,94 -64,155 0,61 25,115 64,155 40,40 94,64 155,64 61,0 115,-25 155,-64z"/>
  <path class="fil0" d="M228 255c0,0 -16,-13 0,-27 0,0 24,-14 29,-38 0,0 7,-33 -22,-52l19 0 22 -13 -84 0c0,0 -46,1 -61,37 0,0 -13,30 7,55 0,0 13,18 37,20l17 -1c0,0 -10,16 6,35 0,0 -57,1 -74,24 0,0 -32,30 2,62 0,0 23,21 78,14 0,0 41,-7 59,-40 0,0 15,-30 -10,-54 0,0 -18,-17 -26,-22zm-67 -63l0 0c-8,-25 0,-50 18,-55 18,-6 39,10 47,35 8,25 0,50 -18,55 -18,6 -39,-10 -47,-35zm76 153l0 0c-27,22 -62,9 -62,9 -47,-15 -30,-50 -30,-50 18,-30 67,-24 67,-24l22 17c29,25 3,47 3,47z"/>
  <polygon class="fil0" points="387,170 354,170 354,136 338,136 338,170 305,170 305,185 338,185 338,219 354,219 354,185 387,185 "/>
 </g>
</svg>
