<?xml version="1.0" encoding="UTF-8"?>
<!DOCTYPE svg PUBLIC "-//W3C//DTD SVG 1.1//EN" "http://www.w3.org/Graphics/SVG/1.1/DTD/svg11.dtd">
<!-- Creator: CorelDRAW X5 -->
<svg xmlns="http://www.w3.org/2000/svg" xml:space="preserve" width="14.508mm" height="14.508mm" style="shape-rendering:geometricPrecision; text-rendering:geometricPrecision; image-rendering:optimizeQuality; fill-rule:evenodd; clip-rule:evenodd"
viewBox="0 0 257 257"
 xmlns:xlink="http://www.w3.org/1999/xlink">
 <defs>
  <style type="text/css">
   <![CDATA[
    .fil0 {fill:#EBEBEB;fill-rule:nonzero}
   ]]>
  </style>
 </defs>
 <g id="Camada_x0020_1">
  <metadata id="CorelCorpID_0Corel-Layer"/>
  <path class="fil0" d="M257 129c0,36 -14,68 -38,91 -23,23 -55,38 -91,38 -36,0 -68,-14 -91,-38 -23,-23 -38,-55 -38,-91 0,-36 14,-68 38,-91 23,-23 55,-38 91,-38 36,0 68,14 91,38 23,23 38,55 38,91zm-47 82c21,-21 34,-50 34,-82 0,-32 -13,-61 -34,-82 -21,-21 -50,-34 -82,-34 -32,0 -61,13 -82,34 -21,21 -34,50 -34,82 0,32 13,61 34,82 21,21 50,34 82,34 32,0 61,-13 82,-34z"/>
  <path class="fil0" d="M83 80c2,0 4,-1 5,-2 1,-1 2,-3 2,-5 0,-2 -1,-4 -2,-5 -1,-1 -3,-2 -5,-2 -2,0 -4,1 -5,2 -1,1 -2,3 -2,5 0,2 1,4 2,5 1,1 3,2 5,2zm14 7c-4,4 -9,6 -14,6 -6,0 -11,-2 -14,-6 -4,-4 -6,-9 -6,-14 0,-6 2,-11 6,-14 4,-4 9,-6 14,-6 6,0 11,2 14,6 4,4 6,9 6,14 0,6 -2,11 -6,14z"/>
  <path class="fil0" d="M89 102l-14 0 0 68 14 0 0 -68zm-19 -13l24 0c2,0 4,1 6,2l0 0c1,1 2,4 2,6l0 78c0,2 -1,4 -2,5 0,0 0,1 -1,1 -1,1 -4,2 -6,2l-24 0c-2,0 -4,-1 -6,-2 -1,-1 -2,-4 -2,-6l0 -78c0,-2 1,-4 2,-6l0 0 0 0 0 0c1,-1 4,-2 6,-2z"/>
  <path class="fil0" d="M162 101c-4,0 -8,1 -11,2 -4,2 -7,4 -9,6 -2,3 -7,3 -9,0 -1,-1 -2,-3 -2,-5l0 0 0 -2 -14 0 0 68 14 0 0 -43c0,0 0,-1 0,-1 0,-4 2,-9 6,-12 3,-3 8,-5 13,-5 9,0 13,3 16,8 2,4 3,9 3,14l0 39 14 0 0 -50 0 0c0,-6 -2,-10 -6,-14 -4,-3 -9,-5 -15,-5l0 0 0 0zm-16 -10c4,-2 10,-3 16,-3l0 0 0 0 0 0c9,0 18,3 24,9 6,6 11,14 11,24l0 0 0 55c0,2 -1,4 -2,6l0 0c-1,1 -4,2 -6,2l-24 0c-2,0 -4,-1 -6,-2 -1,-1 -2,-4 -2,-6l0 -44c0,-3 0,-6 -1,-8 0,-1 -2,-1 -5,-1 -2,0 -3,1 -4,2 -1,1 -2,2 -2,3l0 0 0 48c0,2 -1,4 -2,6 -1,1 -4,2 -6,2l-24 0c-2,0 -4,-1 -5,-2 0,0 -1,0 -1,-1 -1,-1 -2,-4 -2,-6l0 -78c0,-2 1,-4 2,-6l0 0c1,-1 4,-2 6,-2l24 0c2,0 4,1 6,2l0 0 0 0c0,0 1,1 1,1 1,-1 2,-1 3,-2z"/>
 </g>
</svg>
