<?xml version="1.0" encoding="UTF-8"?>
<!DOCTYPE svg PUBLIC "-//W3C//DTD SVG 1.1//EN" "http://www.w3.org/Graphics/SVG/1.1/DTD/svg11.dtd">
<!-- Creator: CorelDRAW X5 -->
<svg xmlns="http://www.w3.org/2000/svg" xml:space="preserve" width="14.508mm" height="14.508mm" style="shape-rendering:geometricPrecision; text-rendering:geometricPrecision; image-rendering:optimizeQuality; fill-rule:evenodd; clip-rule:evenodd"
viewBox="0 0 636 636"
 xmlns:xlink="http://www.w3.org/1999/xlink">
 <defs>
  <style type="text/css">
   <![CDATA[
    .fil0 {fill:#EBEBEB;fill-rule:nonzero}
   ]]>
  </style>
 </defs>
 <g id="Camada_x0020_1">
  <metadata id="CorelCorpID_0Corel-Layer"/>
  <path class="fil0" d="M636 318c0,88 -36,167 -93,225 -58,58 -137,93 -225,93 -88,0 -167,-36 -225,-93 -58,-58 -93,-137 -93,-225 0,-88 36,-167 93,-225 58,-58 137,-93 225,-93 88,0 167,36 225,93 58,58 93,137 93,225zm-116 202c52,-52 84,-123 84,-202 0,-79 -32,-150 -84,-202 -52,-52 -123,-84 -202,-84 -79,0 -150,32 -202,84 -52,52 -84,123 -84,202 0,79 32,150 84,202 52,52 123,84 202,84 79,0 150,-32 202,-84z"/>
  <path class="fil0" d="M198 226c0,0 58,-20 61,-83 0,-9 8,-16 16,-16l0 0 45 0c9,0 16,7 16,16l0 71 73 0c9,0 16,7 16,16l0 56c0,9 -7,16 -16,16l-72 0 0 89c0,0 0,1 0,1 0,7 5,42 72,11 8,-4 18,0 22,8 1,2 2,5 2,7l0 0 0 56c0,8 -6,14 -13,16 -15,4 -172,47 -186,-55 0,-1 0,-1 0,-2l0 0 0 -130 -29 0c-9,0 -16,-7 -16,-16l0 -1 -1 -45c0,-7 4,-13 11,-16l0 0zm92 -66c-9,55 -50,81 -70,91l0 20 30 0c9,0 16,7 16,16l0 145c9,55 100,38 133,30l0 -19c-91,32 -95,-39 -95,-50 0,0 0,-1 0,-1l0 -105c0,-9 7,-16 16,-16l72 0 0 -23 -73 0c-9,0 -16,-7 -16,-16l0 -71 -14 0z"/>
 </g>
</svg>
