<?xml version="1.0" encoding="UTF-8"?>
<!DOCTYPE svg PUBLIC "-//W3C//DTD SVG 1.1//EN" "http://www.w3.org/Graphics/SVG/1.1/DTD/svg11.dtd">
<!-- Creator: CorelDRAW X5 -->
<svg xmlns="http://www.w3.org/2000/svg" xml:space="preserve" width="14.5084mm" height="14.5084mm" style="shape-rendering:geometricPrecision; text-rendering:geometricPrecision; image-rendering:optimizeQuality; fill-rule:evenodd; clip-rule:evenodd"
viewBox="0 0 297 297"
 xmlns:xlink="http://www.w3.org/1999/xlink">
 <defs>
  <style type="text/css">
   <![CDATA[
    .fil0 {fill:#EBEBEB;fill-rule:nonzero}
   ]]>
  </style>
 </defs>
 <g id="Camada_x0020_1">
  <metadata id="CorelCorpID_0Corel-Layer"/>
  <path class="fil0" d="M148 281c37,0 70,-15 94,-39 24,-24 39,-57 39,-94 0,-37 -15,-70 -39,-94 -24,-24 -57,-39 -94,-39 -37,0 -70,15 -94,39 -24,24 -39,57 -39,94 0,37 15,70 39,94 24,24 57,39 94,39zm105 -28c-27,27 -64,43 -105,43 -41,0 -78,-17 -105,-43 -27,-27 -43,-64 -43,-105 0,-41 17,-78 43,-105 27,-27 64,-43 105,-43 41,0 78,17 105,43 27,27 43,64 43,105 0,41 -17,78 -43,105z"/>
  <path class="fil0" d="M164 124c0,1 0,2 0,2l0 0c0,1 0,1 0,2 0,4 -4,8 -8,7 -16,-1 -29,-5 -41,-11 -7,-4 -14,-9 -20,-14 0,3 0,6 1,8 1,5 5,9 10,12l0 0c1,1 2,2 3,4 1,4 -1,8 -5,9 -2,1 -4,1 -6,1 1,1 2,3 3,4 3,4 8,6 13,8 2,1 4,2 5,4 2,4 0,8 -4,10 -1,0 -1,1 -2,1 1,1 2,1 2,2 4,3 8,4 13,5l0 0c2,0 4,1 5,3 3,3 2,8 -1,11 -6,5 -13,8 -20,10 9,2 19,2 28,1 18,-2 35,-10 47,-24 7,-8 13,-18 17,-28 4,-10 5,-21 5,-31l0 0c0,-2 0,-4 2,-5 -1,0 -1,-1 -2,-2 -1,-2 -2,-4 -1,-6 -2,0 -3,-1 -5,-2 -3,-3 -6,-5 -10,-7 -4,-1 -7,-2 -12,-1l0 0c0,0 -1,0 -2,0 -5,1 -9,5 -12,9 -3,4 -5,10 -4,16l0 0 0 0zm-16 -4c0,-8 3,-15 7,-21 5,-7 13,-13 21,-15 1,0 2,0 3,-1l0 0 0 0c7,-1 13,-1 19,1 5,2 9,4 13,7 2,-1 4,-1 6,-2 3,-1 5,-3 8,-4 4,-2 8,-1 11,2 1,2 2,5 1,7 0,1 -1,2 -1,3 2,1 3,2 4,4 1,3 1,6 -1,8 -2,4 -5,7 -8,10 -2,2 -4,4 -6,5 0,11 -2,22 -6,33 -5,12 -11,24 -20,33 -15,17 -36,26 -57,28 -23,3 -46,-2 -63,-14 -3,-2 -4,-7 -2,-11 2,-2 4,-3 7,-3l0 0c7,0 14,0 21,-2 1,0 3,-1 4,-1 -1,0 -2,-1 -2,-2 -6,-4 -11,-10 -14,-18 -1,-2 -1,-5 0,-7 -1,-1 -2,-2 -3,-3 -5,-6 -9,-14 -9,-25 0,-3 1,-5 3,-6 -1,-1 -1,-2 -1,-4 -3,-8 -2,-18 3,-30 2,-4 6,-6 10,-4 1,0 2,1 3,2l0 0c7,8 15,15 25,21 7,4 15,7 25,8z"/>
 </g>
</svg>
